<?xml version="1.0" encoding="utf-8"?>
<svg viewBox="535.9000244140625 95.30001068115234 355.20001220703125 355.1999816894531" width="355.20001220703125" height="355.1999816894531" xmlns="http://www.w3.org/2000/svg"><g transform="matrix(1, 0, 0, 1, 0, 0)"><path class="st0" d="M844.3,265.3c-10.4,2.4-20.3,7-28.9,13.4c-0.1-1.2-0.2-2.3-0.3-3.5c-3,1.5-5.7,3.8-7.8,6.5&#10;&#9;&#9;&#9;c-0.3-0.8-0.6-1.6-0.9-2.4c-2.1,2.6-4.2,5.3-6.3,7.9c-0.5-1-0.9-2.1-1.4-3.1c-2.7,3-5.4,5.9-8,8.9c-1.2,0-1.2-2.2-2.4-2.5&#10;&#9;&#9;&#9;c-0.5-0.2-1.1,0.2-1.6,0.5c-3.5,2.6-6.7,5.8-9.4,9.3c-0.5-0.9-0.9-1.7-1.4-2.6c-2.1,2.8-4.4,5.5-7,7.9c-0.5-1.4-1.6-2.5-3-3.1&#10;&#9;&#9;&#9;c-1.7,2-3.4,4.1-5.1,6.1c-0.7-0.5-1.3-1.4-1.3-2.3c-2.5,2-4.4,4.7-5.4,7.7c-0.7-0.4-1.2-1.1-1.3-1.9c-2.3,2.9-4.1,6.2-5.3,9.7&#10;&#9;&#9;&#9;c-0.2-0.7-0.4-1.4-0.6-2.1c-6.4,8.6-14.3,15.4-23.2,21.3c0.2-2.8,0.7-6.1,2-8.6c1-1.9,2.4-3.7,3.7-5.4c6.5-8.5,13.2-17,21.4-23.8&#10;&#9;&#9;&#9;c-0.9-0.7-1.7-1.3-2.6-2c5.4-3.7,10.7-7.5,16.1-11.2c-0.6-0.6-1.5-1-2.3-1.1c2-2.1,4-4.2,6-6.3c0.9-0.9,1.8-1.9,1.9-3.2&#10;&#9;&#9;&#9;c0.1-1.2-1-2.6-2.2-2.2c3.6-3.6,7.3-7.2,10.9-10.7c-1.5-0.2-3-0.3-4.5-0.5c3.3-3,6.8-5.8,10.3-8.5c-1.3-0.1-2.6-0.2-3.9-0.2&#10;&#9;&#9;&#9;c1.8-3.3,4.2-6.3,6.9-8.9c-1.2,0.2-2.5,0.3-3.8,0.3c2.6-3.3,5.6-7.3,8.8-10c-1.7,0.2-3.5,0.3-5.2,0.5c3.2-3.5,5.9-7.3,8.2-11.5&#10;&#9;&#9;&#9;c-1,0.2-2,0.5-3.1,0.7c2.4-2.8,4.4-5.9,5.9-9.3c-1.3,0.1-2.5,0.1-3.8,0.2c2.3-2.4,4.1-5.3,5.4-8.3c-0.7,0.1-1.4,0.2-2.1,0.3&#10;&#9;&#9;&#9;c1.2-1.7,2.2-3.6,2.8-5.7c-0.7,0-1.5,0.1-2.2,0.1c0.4-7.3,1.4-14.6,2.9-21.7c-3.3,7.6-8.2,14.3-13.6,20.6&#10;&#9;&#9;&#9;c-0.8-1.1-1.6-2.1-2.4-3.2c-1.4,2.7-2.2,5.7-2.4,8.7c-0.8,0-1.6-0.1-2.5-0.1c-0.3,2-0.6,3.9-0.9,5.9c-1.1-0.3-2.2-0.6-3.3-0.9&#10;&#9;&#9;&#9;c-1.5,3.6-2.9,7.1-4.4,10.7c-0.9-0.6-1.8-1.2-2.7-1.8c-1.1,4.1-2.2,8.2-3.3,12.3c-1-0.8-1.9-1.6-2.9-2.4c-1.9,5-3.6,10-4.9,15.2&#10;&#9;&#9;&#9;c-0.9-0.2-1.8-0.7-2.4-1.5c-2.5,4.9-4,10.3-4.6,15.7c-1.4-0.4-2.7-1.1-3.7-2.2c-1,4.6-2,9.2-3,13.8c-1.4-0.4-2.7-0.9-3.9-1.7&#10;&#9;&#9;&#9;c-0.6,3.7-1.2,7.3-1.8,11c-1.4-0.2-2.7-0.6-3.8-1.4c-0.7,4.8-1,9.6-1,14.5c-1.1,0-2.2-0.3-3.1-0.9c-0.5,10.5-3,21-7.2,30.6&#10;&#9;&#9;&#9;c-0.5,1.1-1.3-0.5-1.8-1.5c-0.5-1-0.4-2.3-0.2-3.4c2.1-13,6.7-25.6,10.8-38.1c-1.3,0.5-2.8-0.7-3.1-2.1c-0.3-1.4,0.2-2.8,0.7-4.2&#10;&#9;&#9;&#9;c1.9-5.7,2.6-11.7,2-17.7c-0.6,0.2-1.3,0.5-1.9,0.7c1.6-7,2.4-14.1,2.2-21.3c-0.9,0.7-1.8,1.2-2.9,1.5c0.8-7.2,0.9-14.4,0.5-21.6&#10;&#9;&#9;&#9;c-1.1,0.6-2,1.6-2.3,2.8c0.2-6.4,0.8-13.6,0.4-19.9c-0.9,0.3-1.8,0.6-2.6,0.8c0.7-4.9,1.1-9.9,1.2-14.9c-1.1,0.1-2.3,0.3-3.3,0.8&#10;&#9;&#9;&#9;c-0.5-5.2-0.6-10.4-0.5-15.6c-0.8,0.6-1.8,1-2.8,1c-1.3-26.7-6.7-47-6.7-47v0v0v0v0c0,0-5.4,20.4-6.7,47c-1-0.1-2-0.4-2.8-1&#10;&#9;&#9;&#9;c0.2,5.2,0,10.4-0.5,15.6c-1-0.5-2.2-0.7-3.3-0.8c0.1,5,0.5,10,1.2,14.9c-0.9-0.3-1.8-0.6-2.6-0.8c-0.4,6.4,0.2,13.6,0.4,19.9&#10;&#9;&#9;&#9;c-0.3-1.2-1.2-2.2-2.3-2.8c-0.4,7.2-0.2,14.5,0.5,21.6c-1-0.3-2-0.8-2.9-1.5c-0.1,7.2,0.6,14.3,2.2,21.3c-0.6-0.2-1.3-0.5-1.9-0.7&#10;&#9;&#9;&#9;c-0.5,6,0.2,12,2,17.7c0.4,1.4,1,2.8,0.7,4.2c-0.3,1.4-1.8,2.7-3.1,2.1c4.1,12.5,8.7,25.2,10.8,38.1c0.2,1.1,0.3,2.4-0.2,3.4&#10;&#9;&#9;&#9;c-0.5,1-1.4,2.6-1.8,1.5c-4.2-9.7-6.7-20.1-7.2-30.6c-0.9,0.6-2,0.9-3.1,0.9c0.1-4.8-0.3-9.7-1-14.5c-1.2,0.7-2.5,1.2-3.8,1.4&#10;&#9;&#9;&#9;c-0.6-3.7-1.2-7.3-1.8-11c-1.2,0.8-2.5,1.3-3.9,1.7c-1-4.6-2-9.2-3-13.8c-1,1-2.3,1.8-3.7,2.2c-0.5-5.5-2.1-10.8-4.6-15.7&#10;&#9;&#9;&#9;c-0.6,0.7-1.5,1.3-2.4,1.5c-1.3-5.1-3-10.2-4.9-15.2c-1,0.8-1.9,1.6-2.9,2.4c-1.1-4.1-2.2-8.2-3.3-12.3c-0.9,0.6-1.8,1.2-2.7,1.8&#10;&#9;&#9;&#9;c-1.5-3.6-2.9-7.1-4.4-10.7c-1.1,0.3-2.2,0.6-3.3,0.9c-0.3-2-0.6-3.9-0.9-5.9c-0.8,0-1.6,0.1-2.5,0.1c-0.2-3-1-6-2.4-8.7&#10;&#9;&#9;&#9;c-0.8,1.1-1.6,2.1-2.4,3.2c-5.5-6.2-10.3-13-13.6-20.6c1.5,7.2,2.5,14.4,2.9,21.7c-0.7,0-1.5-0.1-2.2-0.1c0.6,2,1.5,3.9,2.8,5.7&#10;&#9;&#9;&#9;c-0.7-0.1-1.4-0.2-2.1-0.3c1.3,3,3.2,5.9,5.4,8.3c-1.3-0.1-2.5-0.1-3.8-0.2c1.5,3.4,3.5,6.5,5.9,9.3c-1-0.2-2-0.5-3.1-0.7&#10;&#9;&#9;&#9;c2.3,4.1,5,8,8.2,11.5c-1.7-0.2-3.5-0.3-5.2-0.5c3.2,2.7,6.2,6.7,8.8,10c-1.3,0-2.5-0.1-3.8-0.3c2.7,2.6,5,5.6,6.9,8.9&#10;&#9;&#9;&#9;c-1.3,0.1-2.6,0.2-3.9,0.2c3.6,2.7,7,5.5,10.3,8.5c-1.5,0.2-3,0.3-4.5,0.5c3.6,3.6,7.3,7.2,10.9,10.7c-1.2-0.4-2.4,1-2.2,2.2&#10;&#9;&#9;&#9;c0.1,1.2,1,2.3,1.9,3.2c2,2.1,4,4.2,6,6.3c-0.9,0.1-1.7,0.5-2.3,1.1c5.4,3.7,10.7,7.5,16.1,11.2c-0.9,0.7-1.7,1.3-2.6,2&#10;&#9;&#9;&#9;c8.2,6.8,14.9,15.4,21.4,23.8c1.3,1.7,2.7,3.5,3.7,5.4c1.4,2.5,1.8,5.8,2,8.6c-8.9-6-16.8-12.8-23.2-21.3&#10;&#9;&#9;&#9;c-0.2,0.7-0.4,1.4-0.6,2.1c-1.2-3.5-3-6.8-5.3-9.7c-0.1,0.8-0.6,1.5-1.3,1.9c-1.1-3-3-5.7-5.4-7.7c-0.1,0.9-0.6,1.7-1.3,2.3&#10;&#9;&#9;&#9;c-1.7-2-3.4-4.1-5.1-6.1c-1.4,0.5-2.5,1.7-3,3.1c-2.6-2.4-4.9-5-7-7.9c-0.5,0.9-0.9,1.7-1.4,2.6c-2.7-3.5-5.8-6.7-9.4-9.3&#10;&#9;&#9;&#9;c-0.5-0.3-1-0.7-1.6-0.5c-1.2,0.3-1.1,2.5-2.4,2.5c-2.7-3-5.4-5.9-8-8.9c-0.5,1-0.9,2.1-1.4,3.1c-2.1-2.6-4.2-5.3-6.3-7.9&#10;&#9;&#9;&#9;c-0.3,0.8-0.6,1.6-0.9,2.4c-2-2.7-4.7-5-7.8-6.5c-0.1,1.2-0.2,2.3-0.3,3.5c-8.6-6.4-18.5-11-28.9-13.4&#10;&#9;&#9;&#9;c8.2,8.7,17.4,16.5,26.5,24.3c-0.6,1.5-1.5,2.8-2.6,3.9c1.7,0.5,3.3,1.2,4.8,2c-0.5,1.1-1.3,2-2.3,2.7c3.6,1.5,7.1,3,10.6,4.8&#10;&#9;&#9;&#9;c-0.6,0.4-1.1,1.1-1.3,1.8c3.5,1.1,6.9,2.3,10.4,3.4c-0.5,0.9-0.9,1.8-1.4,2.7c3,1.4,6,2.7,9.1,3.9c-0.8,0.6-1.5,1.1-2.3,1.7&#10;&#9;&#9;&#9;c3.6,2.5,7.8,4.2,12.1,4.9c-1,0.8-2,1.7-3,2.5c4.3,1.9,8.8,4,13.1,5.9c-1.7,0.2-3.4,0.7-4.9,1.5c13.9,6.1,35.7,9.2,49.5,15.6&#10;&#9;&#9;&#9;c-6.6,0.9-20.4,2.5-26.9,3.7c0.5,0.6,0.8,1.2,1.1,1.9c-3.4,0.5-6.8,1.1-10.2,1.6c1,0.3,1.9,1,2.4,1.9c-3.7,1.5-7.5,3-11.3,4.5&#10;&#9;&#9;&#9;c1.1,0.4,1.9,1.3,2.2,2.3c-3.4,2-7.1,3.7-10.8,5.1c1,0.8,2,1.6,3,2.4c-3.9,4-7.7,7.9-11.6,11.9c5.2-2.5,10.7-4.5,16.4-5.9&#10;&#9;&#9;&#9;c0.1,1.1,0.2,2.1,0.3,3.2c2.7-1.6,5.4-3.2,8-4.9c0,0.7,0,1.5,0,2.2c4-2.1,8-4.1,11.9-6.2c-0.1,0.8-0.4,1.6-0.9,2.3&#10;&#9;&#9;&#9;c5.4-2.7,10.4-6.1,15-10c0.2,1.1,0.3,2.1,0.5,3.2c4-1.6,7-4.9,10.3-7.8c3.3-2.8,5.6-6.8,9.9-6.1v52h3.4l0,0h3.4v-52&#10;&#9;&#9;&#9;c4.3-0.7,6.6,3.3,9.9,6.1c3.3,2.8,6.3,6.2,10.3,7.8c0.2-1.1,0.3-2.1,0.5-3.2c4.6,3.9,9.6,7.3,15,10c-0.5-0.7-0.8-1.5-0.9-2.3&#10;&#9;&#9;&#9;c4,2.1,8,4.1,11.9,6.2c0-0.7,0-1.5,0-2.2c2.7,1.6,5.4,3.2,8,4.9c0.1-1.1,0.2-2.1,0.3-3.2c5.6,1.4,11.1,3.4,16.4,5.9&#10;&#9;&#9;&#9;c-3.9-4-7.7-7.9-11.6-11.9c1-0.8,2-1.6,3-2.4c-3.7-1.4-7.3-3.1-10.8-5.1c0.3-1.1,1.1-2,2.2-2.3c-3.8-1.5-7.5-3-11.3-4.5&#10;&#9;&#9;&#9;c0.5-0.9,1.4-1.6,2.4-1.9c-3.4-0.5-6.8-1.1-10.2-1.6c0.2-0.7,0.6-1.3,1.1-1.9c-6.5-1.1-20.4-2.8-26.9-3.7&#10;&#9;&#9;&#9;c13.8-6.3,35.6-9.4,49.5-15.6c-1.5-0.8-3.2-1.3-4.9-1.5c4.3-1.9,8.8-4,13.1-5.9c-1-0.8-2-1.7-3-2.5c4.3-0.7,8.5-2.4,12.1-4.9&#10;&#9;&#9;&#9;c-0.8-0.6-1.5-1.1-2.3-1.7c3.1-1.2,6.1-2.5,9.1-3.9c-0.5-0.9-0.9-1.8-1.4-2.7c3.5-1.1,6.9-2.3,10.4-3.4c-0.2-0.7-0.7-1.4-1.3-1.8&#10;&#9;&#9;&#9;c3.5-1.7,7-3.3,10.6-4.8c-0.9-0.7-1.7-1.7-2.3-2.7c1.5-0.9,3.1-1.6,4.8-2c-1.1-1.1-2-2.4-2.6-3.9C827,281.8,836.1,274,844.3,265.3&#10;&#9;&#9;&#9;z" style="fill: rgb(113, 10, 16);" transform="matrix(1, 0, 0, 1, 3.637978807091713e-12, 9.237055564881302e-13)"/><path class="st0" d="M713.5,95.3c-97.9,0-177.6,79.7-177.6,177.6s79.7,177.6,177.6,177.6s177.6-79.7,177.6-177.6&#10;&#9;&#9;&#9;S811.4,95.3,713.5,95.3z M775.4,375.6c-18.6,11.3-39.7,17.2-61.9,17.2c-66.1,0-119.9-53.8-119.9-119.9c0-22.2,5.9-43.3,17.2-61.9&#10;&#9;&#9;&#9;L775.4,375.6z M651.6,170.2c18.6-11.3,39.7-17.2,61.9-17.2c66.1,0,119.9,53.8,119.9,119.9c0,22.2-5.9,43.3-17.2,61.9L651.6,170.2z&#10;&#9;&#9;&#9;" style="fill: rgb(113, 10, 16);" transform="matrix(1, 0, 0, 1, 3.637978807091713e-12, 9.237055564881302e-13)"/><path class="st2" d="M713.5,441.5c-92.9,0-168.5-75.6-168.5-168.5c0-92.9,75.6-168.5,168.5-168.5c92.9,0,168.5,75.6,168.5,168.5&#10;&#9;&#9;&#9;C882.1,365.9,806.5,441.5,713.5,441.5z M603.1,206.3c-12.1,20-18.6,43-18.6,66.6c0,71.1,57.9,129,129,129&#10;&#9;&#9;&#9;c23.6,0,46.6-6.4,66.6-18.6l9.8-6L609.1,196.5L603.1,206.3z M713.5,143.9c-23.6,0-46.6,6.4-66.6,18.6l-9.8,6L818,349.4l6-9.8&#10;&#9;&#9;&#9;c12.1-20,18.6-43,18.6-66.6C842.5,201.8,784.6,143.9,713.5,143.9z" style="fill: rgb(237, 28, 36);" transform="matrix(1, 0, 0, 1, 3.637978807091713e-12, 9.237055564881302e-13)"/><text transform="matrix(0.7071000933647156, 0.7071000933647156, -0.7071000933647156, 0.7071000933647156, 620.7916259765625, 194.40199279785156)" class="st0 st3 st4" style="white-space: pre; fill: rgb(113, 10, 16); font-family: Roboto-Bold; font-size: 27.2062px;">SAY NO TO DRUGS</text><path id="SVGID_x5F_1_x5F_" class="st5" d="M851.5,272.9c0,76.1-61.9,138-138,138s-138-61.9-138-138c0-76.1,61.9-138,138-138&#10;&#9;&#9;&#9;S851.5,196.8,851.5,272.9z" style="fill: none;" transform="matrix(1, 0, 0, 1, 3.637978807091713e-12, 9.237055564881302e-13)"/></g></svg>